<svg xmlns="http://www.w3.org/2000/svg" viewBox="0 0 24 24">
  <path fill="#FFFFFF" d="M12 2.2A9.7 9.7 0 0 0 3.7 17l-1.2 4.8 4.9-1.2A9.7 9.7 0 1 0 12 2.2Zm0 17.4c-1.6 0-3.1-.5-4.4-1.3l-.3-.2-2.4.6.6-2.3-.2-.4a7.6 7.6 0 1 1 6.7 3.6Zm4.2-5.6c-.2-.1-1.4-.7-1.6-.8-.2-.1-.4-.1-.6.1-.2.2-.6.8-.8 1-.1.2-.3.2-.5.1-.2-.1-1-.4-1.9-1.2-.7-.6-1.2-1.4-1.3-1.6-.1-.2 0-.4.1-.5l.4-.5c.1-.2.2-.3.3-.5.1-.2 0-.4 0-.5 0-.1-.5-1.3-.7-1.7-.2-.4-.4-.4-.6-.4h-.5c-.2 0-.5.1-.7.3-.2.2-.9.9-.9 2.2s.9 2.5 1.1 2.7c.1.2 1.9 2.9 4.6 4 .6.3 1.1.4 1.5.5.6.2 1.2.1 1.6.1.5-.1 1.4-.6 1.6-1.1.2-.6.2-1 .1-1.1 0-.2-.2-.3-.4-.4Z"/>
</svg>
